<svg width="75" height="47" viewBox="0 0 75 47" fill="none" xmlns="http://www.w3.org/2000/svg">
<path d="M56.6667 39.2251L56.6667 29.5106C56.6667 28.5579 57.439 27.7856 58.3917 27.7856L70.275 27.7856C71.2277 27.7856 72 27.0133 72 26.0606L72 4.72509C72 3.7724 71.2277 3.00009 70.275 3.00009L4.72502 3.00009C3.77232 3.00009 3.00002 3.7724 3.00002 4.72509L3.00001 26.0606C3.00001 27.0133 3.77231 27.7856 4.72501 27.7856L13.5417 27.7856M19.2917 39.2251L19.2917 22.178C19.2917 19.8243 27.7503 17.9163 38.1845 17.9163" stroke="#1B68C2" stroke-width="4.025" stroke-linejoin="round"/>
<path d="M56.4749 39.225C56.4749 42.0831 48.1726 44.4 37.9312 44.4C27.6898 44.4 19.3875 42.0831 19.3875 39.225C19.3875 36.367 27.6898 34.05 37.9312 34.05C48.1726 34.05 56.4749 36.367 56.4749 39.225Z" stroke="#1B68C2" stroke-width="4.025"/>
</svg>
