<svg width="106" height="94" viewBox="0 0 106 94" fill="none" xmlns="http://www.w3.org/2000/svg">
<g opacity="0.05">
<path d="M80.4443 82.6571L80.4443 68.6385C80.4443 67.2637 81.5588 66.1492 82.9336 66.1492L100.082 66.1492C101.457 66.1492 102.571 65.0347 102.571 63.6599L102.571 32.8714C102.571 31.4966 101.457 30.3821 100.082 30.3821L5.48917 30.3821C4.11437 30.3821 2.99988 31.4966 2.99988 32.8714L2.99986 63.6599C2.99986 65.0347 4.11435 66.1492 5.48915 66.1492L18.2122 66.1492M26.5098 82.6571L26.5098 58.0571C26.5098 54.6606 38.7161 51.9071 53.7734 51.9071" stroke="white" stroke-width="5.80833" stroke-linejoin="round"/>
<path d="M80.1681 82.6572C80.1681 86.7816 68.1873 90.125 53.4083 90.125C38.6292 90.125 26.6484 86.7816 26.6484 82.6572C26.6484 78.5328 38.6292 75.1893 53.4083 75.1893C68.1873 75.1893 80.1681 78.5328 80.1681 82.6572Z" stroke="white" stroke-width="5.80833"/>
<path d="M26.6484 24.1589V5.48929C26.6484 4.11449 27.7629 3 29.1377 3H77.6788C79.0536 3 80.1681 4.11449 80.1681 5.48929V24.1589" stroke="white" stroke-width="5.80833"/>
</g>
</svg>
