<svg width="183" height="247" viewBox="0 0 183 247" fill="none" xmlns="http://www.w3.org/2000/svg">
<g opacity="0.05">
<path d="M116.333 219.2L116.333 182.031C116.333 178.386 119.288 175.431 122.933 175.431L168.4 175.431C172.045 175.431 175 172.477 175 168.831L175 87.1998C175 83.5548 172.045 80.5998 168.4 80.5998L-82.4001 80.5998C-86.0451 80.5998 -89 83.5548 -89.0001 87.1998L-89.0001 168.831C-89.0001 172.477 -86.0452 175.431 -82.4001 175.431L-48.6667 175.431M-26.6667 219.2L-26.6667 153.976C-26.6667 144.971 5.69671 137.67 45.619 137.67" stroke="#1B68C2" stroke-width="15.4" stroke-linejoin="round"/>
<path d="M115.6 219.2C115.6 230.135 83.8348 239 44.6502 239C5.46561 239 -26.2998 230.135 -26.2998 219.2C-26.2998 208.265 5.46561 199.4 44.6502 199.4C83.8348 199.4 115.6 208.265 115.6 219.2Z" stroke="#1B68C2" stroke-width="15.4"/>
<path d="M-26.2998 64.1V14.6C-26.2998 10.9549 -23.3449 8 -19.6998 8H109C112.645 8 115.6 10.9549 115.6 14.6V64.1" stroke="#1B68C2" stroke-width="15.4"/>
</g>
</svg>
