<svg width="18" height="18" viewBox="0 0 18 18" fill="none" xmlns="http://www.w3.org/2000/svg">
<path fill-rule="evenodd" clip-rule="evenodd" d="M8.6875 16.175L8.73618 16.1748L7.91774 14.4121V12.1107L6.10545 10.5286L4.12056 8.19848L3.83289 5.75332L4.12056 3.76843L3.42643 3.35986C2.05185 4.71737 1.2 6.60295 1.2 8.6875C1.2 12.8227 4.55227 16.175 8.6875 16.175ZM10.1328 14.1819V16.0356C13.2813 15.4199 15.7233 12.831 16.1188 9.60918L15.4669 11.7908L15.2367 10.3525L14.46 9.57578L14.1148 7.93608L15.7258 6.61282L16.1674 9.02868C16.1724 8.91559 16.175 8.80184 16.175 8.6875C16.175 5.28556 13.9062 2.41352 10.7992 1.50191L8.78074 2.09997L8.23418 3.59583L10.2766 3.45199L10.9382 4.83279L9.21224 6.96151L6.10545 8.62997L6.36435 10.1834L7.91774 10.3847H11.1427L12.4053 11.0751L10.9382 13.2902L10.1328 14.1819ZM8.6875 17.375C13.4855 17.375 17.375 13.4855 17.375 8.6875C17.375 3.88953 13.4855 0 8.6875 0C3.88953 0 0 3.88953 0 8.6875C0 13.4855 3.88953 17.375 8.6875 17.375Z" fill="#828282"/>
</svg>
