<svg width="91" height="61" viewBox="0 0 91 61" fill="none" xmlns="http://www.w3.org/2000/svg">
<path opacity="0.2" d="M30.2469 4.46566L30.1711 4.51981L30.0995 4.57945C28.5642 5.85891 27.1909 7.75272 25.9259 10.0651L4.39945 46.5405C3.20695 48.2409 2.5 50.1063 2.5 52.1C2.5 53.7676 3.06097 55.4059 4.50545 56.5408C5.83513 57.5855 7.54066 57.9 9.2 57.9H22.7C25.3237 57.9 27.6679 56.9923 29.6224 55.2332C31.523 53.5227 32.9585 51.0987 34.0427 48.1729C34.0432 48.1714 34.0438 48.1698 34.0444 48.1683L47.5408 12.1778L47.6024 12.0136L47.6405 11.8423L48.2405 9.14234L48.3 8.87444V8.60001C48.3 7.01464 47.902 5.36644 46.6678 4.13224C45.4336 2.89804 43.7854 2.5 42.2 2.5H37.1C34.5244 2.5 32.1757 3.08799 30.2469 4.46566ZM70.4469 4.46566L70.3711 4.51981L70.2995 4.57944C68.7642 5.85891 67.3908 7.75274 66.1259 10.0651L44.5994 46.5405C43.4069 48.2409 42.7 50.1064 42.7 52.1C42.7 53.7676 43.261 55.4059 44.7054 56.5408C46.0351 57.5855 47.7407 57.9 49.4 57.9H62.9C65.5237 57.9 67.8679 56.9923 69.8224 55.2332C71.723 53.5227 73.1584 51.0988 74.2426 48.173C74.2432 48.1715 74.2438 48.1699 74.2444 48.1683L87.7408 12.1778L87.8024 12.0136L87.8405 11.8423L88.4405 9.14233L88.5 8.87444V8.60001C88.5 7.01465 88.102 5.36644 86.8678 4.13224C85.6336 2.89803 83.9854 2.5 82.4 2.5H77.3C74.7244 2.5 72.3757 3.08799 70.4469 4.46566Z" stroke="#E41C0F" stroke-width="5"/>
</svg>
