<svg width="51" height="48" viewBox="0 0 51 48" fill="none" xmlns="http://www.w3.org/2000/svg">
<path d="M25.3252 27.6272L25.3254 27.6273C26.4838 28.5129 28.0962 29.4788 29.4733 30.2467C29.9225 30.4972 30.3378 30.7218 30.6923 30.91C31.7784 29.9878 33.3926 28.65 34.4655 27.9047L34.4673 27.9035C36.1817 26.7153 37.8965 27.0135 39.013 27.5389C39.5474 27.7903 39.9683 28.0976 40.2502 28.3325C40.3942 28.4524 40.5101 28.5604 40.5949 28.6437C40.6277 28.676 40.6563 28.7049 40.6803 28.7298L40.6994 28.7475L40.8885 28.9234C41.0519 29.0754 41.2864 29.2938 41.5715 29.5598C42.1414 30.0915 42.9138 30.8139 43.7231 31.5758C45.3074 33.0674 47.1245 34.7958 47.7648 35.4829C48.7819 36.5674 49.0284 37.7891 48.9974 38.7161C48.9824 39.1648 48.9042 39.543 48.8282 39.8147C48.7898 39.9522 48.7505 40.0674 48.7171 40.1566C48.7004 40.2013 48.6849 40.2399 48.6716 40.272C48.6649 40.288 48.6587 40.3025 48.6531 40.3153L48.6451 40.3333L48.6415 40.3414L48.6398 40.3452L48.639 40.347C48.6386 40.3479 48.6381 40.3488 46.8185 39.5189L48.6381 40.3488L48.5637 40.512L48.4614 40.6594C48.3562 40.8109 48.2491 40.9708 48.1379 41.1368C47.4301 42.193 46.5589 43.4931 45.005 44.404C43.2243 45.4478 40.749 45.9175 36.8822 45.9995L36.8622 46L36.8421 46C32.4626 46.005 28.1541 44.3288 24.2769 41.9875C20.4026 39.648 16.8216 36.5617 13.8331 33.5192C10.854 30.8195 7.93424 27.6815 5.74387 24.3177C3.55266 20.9526 1.99582 17.2141 2.00001 13.3764L2.00003 13.353L2.00061 13.3295C2.08985 9.69236 2.62296 7.31541 3.82456 5.60824C4.80885 4.20981 6.19201 3.41668 7.29424 2.78465C7.49545 2.66927 7.6873 2.55926 7.86565 2.45192L8.0116 2.36408L8.17031 2.30218L8.89698 4.1655C8.17031 2.30218 8.17114 2.30186 8.17198 2.30153L8.17369 2.30087L8.17723 2.2995L8.18479 2.2966L8.20183 2.29016C8.21404 2.2856 8.22795 2.28051 8.2435 2.27497C8.27458 2.2639 8.31238 2.25099 8.35641 2.2369C8.44424 2.20882 8.55834 2.17563 8.69479 2.14314C8.96494 2.07883 9.33855 2.01346 9.7798 2.00183C10.6692 1.97838 11.8949 2.17653 13.0277 3.09271L25.3252 27.6272ZM25.3252 27.6272C21.8438 24.9666 19.477 21.6554 18.1841 19.6829M25.3252 27.6272L18.1841 19.6829M18.1841 19.6829L17.9777 19.3214C18.9698 18.3095 20.3856 16.8306 21.1781 15.8428L18.1841 19.6829ZM20.2869 9.67743C20.3137 9.69977 20.345 9.72652 20.3802 9.75751C20.4692 9.83593 20.5855 9.94391 20.7153 10.0787C20.9674 10.3407 21.308 10.7425 21.5905 11.2622C21.8734 11.7827 22.1366 12.4941 22.1227 13.3371C22.1082 14.2147 21.7951 15.0739 21.1783 15.8427L20.2869 9.67743ZM20.2869 9.67743L20.267 9.65887L20.0778 9.48309C19.9143 9.33124 19.6794 9.11326 19.3933 8.84835C18.8214 8.31866 18.0444 7.60076 17.2251 6.84861C15.6178 5.37301 13.7597 3.68419 13.0285 3.09335L20.2869 9.67743Z" stroke="#E41C0F" stroke-width="4"/>
</svg>
