<svg width="18" height="17" viewBox="0 0 18 17" fill="none" xmlns="http://www.w3.org/2000/svg">
<path fill-rule="evenodd" clip-rule="evenodd" d="M8.67665 10.2255C7.30189 9.16843 6.38363 7.86266 5.90088 7.11978L5.54058 6.48489C5.66651 6.3589 6.62675 5.39675 7.04302 4.87477C7.56512 4.22025 6.80777 3.62873 6.80777 3.62873C6.80777 3.62873 4.67566 1.63244 4.18942 1.23727C3.70318 0.841283 3.14436 1.06055 3.14436 1.06055C2.1229 1.67907 1.06297 2.21496 1 4.79705C0.997379 7.21387 2.95896 9.70759 5.0797 11.6376C7.20394 13.8172 10.1205 16.0033 12.9417 16C15.7 15.9411 16.2746 14.9503 16.934 13.9947C16.934 13.9947 17.171 13.4719 16.7468 13.0178C16.3244 12.5613 14.1897 10.5675 14.1897 10.5675C14.1897 10.5675 13.5574 9.85813 12.8569 10.3466C12.3348 10.7115 11.3973 11.5239 11.1717 11.7219C11.1717 11.7219 9.60541 10.9397 8.67665 10.2255Z" stroke="#4F4F4F"/>
</svg>
