<svg width="166" height="55" viewBox="0 0 166 55" fill="none" xmlns="http://www.w3.org/2000/svg">
<path d="M72.9625 28.1694C71.0354 28.1694 69.5412 27.6806 68.4799 26.703C67.4326 25.7115 66.874 24.3079 66.8041 22.4924C66.7902 22.1154 66.7832 21.5009 66.7832 20.649C66.7832 19.7831 66.7902 19.1547 66.8041 18.7636C66.874 16.9761 67.4395 15.5865 68.5008 14.5949C69.5621 13.5894 71.0494 13.0867 72.9625 13.0867C74.2053 13.0867 75.2876 13.3031 76.2092 13.7361C77.1309 14.155 77.8431 14.7346 78.3458 15.4748C78.8625 16.2149 79.1348 17.0459 79.1627 17.9676V18.0095C79.1627 18.1212 79.1139 18.219 79.0161 18.3028C78.9323 18.3726 78.8346 18.4075 78.7229 18.4075H76.691C76.5234 18.4075 76.3978 18.3726 76.314 18.3028C76.2302 18.219 76.1604 18.0793 76.1045 17.8838C75.895 17.018 75.532 16.4105 75.0153 16.0613C74.4986 15.6982 73.8143 15.5167 72.9625 15.5167C70.9656 15.5167 69.9252 16.6339 69.8414 18.8684C69.8275 19.2454 69.8205 19.825 69.8205 20.6071C69.8205 21.3891 69.8275 21.9827 69.8414 22.3877C69.9252 24.6222 70.9656 25.7394 72.9625 25.7394C73.8004 25.7394 74.4776 25.5648 74.9943 25.2157C75.525 24.8526 75.895 24.2381 76.1045 23.3722C76.1604 23.1767 76.2302 23.0441 76.314 22.9742C76.3978 22.8904 76.5234 22.8485 76.691 22.8485H78.7229C78.8485 22.8485 78.9533 22.8904 79.0371 22.9742C79.1348 23.058 79.1767 23.1628 79.1627 23.2885C79.1348 24.2102 78.8625 25.0411 78.3458 25.7813C77.8431 26.5215 77.1309 27.108 76.2092 27.5409C75.2876 27.9599 74.2053 28.1694 72.9625 28.1694Z" fill="white"/>
<path d="M87.302 28.1694C85.3889 28.1694 83.9017 27.6876 82.8404 26.724C81.7791 25.7603 81.2205 24.3289 81.1646 22.4296C81.1507 22.0246 81.1437 21.431 81.1437 20.649C81.1437 19.8529 81.1507 19.2524 81.1646 18.8474C81.2205 16.99 81.793 15.5655 82.8823 14.574C83.9715 13.5824 85.4447 13.0867 87.302 13.0867C89.1453 13.0867 90.6116 13.5824 91.7008 14.574C92.804 15.5655 93.3836 16.99 93.4394 18.8474C93.4674 19.6574 93.4813 20.2579 93.4813 20.649C93.4813 21.026 93.4674 21.6196 93.4394 22.4296C93.3836 24.3289 92.818 25.7603 91.7427 26.724C90.6814 27.6876 89.2012 28.1694 87.302 28.1694ZM87.302 25.7394C88.2376 25.7394 88.9778 25.4601 89.5224 24.9015C90.067 24.3428 90.3603 23.484 90.4021 22.3248C90.4301 21.4869 90.444 20.9213 90.444 20.628C90.444 20.3068 90.4301 19.7412 90.4021 18.9312C90.3603 17.7861 90.06 16.9342 89.5014 16.3755C88.9429 15.803 88.2097 15.5167 87.302 15.5167C86.3804 15.5167 85.6402 15.803 85.0817 16.3755C84.5231 16.9342 84.2298 17.7861 84.2019 18.9312C84.1879 19.3362 84.181 19.9018 84.181 20.628C84.181 21.3403 84.1879 21.9059 84.2019 22.3248C84.2298 23.47 84.5161 24.3289 85.0607 24.9015C85.6193 25.4601 86.3664 25.7394 87.302 25.7394Z" fill="white"/>
<path d="M96.7137 27.9599C96.574 27.9599 96.4553 27.911 96.3576 27.8133C96.2598 27.7155 96.2109 27.5968 96.2109 27.4571V13.8199C96.2109 13.6662 96.2528 13.5405 96.3366 13.4428C96.4344 13.345 96.5601 13.2962 96.7137 13.2962H98.3475C98.6128 13.2962 98.8153 13.4149 98.955 13.6523L104.946 22.9533V13.8199C104.946 13.6662 104.988 13.5405 105.071 13.4428C105.169 13.345 105.295 13.2962 105.448 13.2962H107.25C107.403 13.2962 107.529 13.345 107.627 13.4428C107.725 13.5405 107.774 13.6662 107.774 13.8199V27.4362C107.774 27.5898 107.725 27.7155 107.627 27.8133C107.529 27.911 107.41 27.9599 107.271 27.9599H105.616C105.337 27.9599 105.127 27.8412 104.988 27.6038L99.0178 18.5123V27.4571C99.0178 27.5968 98.9689 27.7155 98.8712 27.8133C98.7874 27.911 98.6687 27.9599 98.5151 27.9599H96.7137Z" fill="white"/>
<path d="M116.677 28.1694C114.749 28.1694 113.255 27.6806 112.194 26.703C111.147 25.7115 110.588 24.3079 110.518 22.4924C110.504 22.1154 110.497 21.5009 110.497 20.649C110.497 19.7831 110.504 19.1547 110.518 18.7636C110.588 16.9761 111.154 15.5865 112.215 14.5949C113.276 13.5894 114.763 13.0867 116.677 13.0867C117.919 13.0867 119.002 13.3031 119.923 13.7361C120.845 14.155 121.557 14.7346 122.06 15.4748C122.577 16.2149 122.849 17.0459 122.877 17.9676V18.0095C122.877 18.1212 122.828 18.219 122.73 18.3028C122.646 18.3726 122.549 18.4075 122.437 18.4075H120.405C120.238 18.4075 120.112 18.3726 120.028 18.3028C119.944 18.219 119.874 18.0793 119.819 17.8838C119.609 17.018 119.246 16.4105 118.729 16.0613C118.213 15.6982 117.528 15.5167 116.677 15.5167C114.68 15.5167 113.639 16.6339 113.556 18.8684C113.542 19.2454 113.535 19.825 113.535 20.6071C113.535 21.3891 113.542 21.9827 113.556 22.3877C113.639 24.6222 114.68 25.7394 116.677 25.7394C117.514 25.7394 118.192 25.5648 118.708 25.2157C119.239 24.8526 119.609 24.2381 119.819 23.3722C119.874 23.1767 119.944 23.0441 120.028 22.9742C120.112 22.8904 120.238 22.8485 120.405 22.8485H122.437C122.563 22.8485 122.667 22.8904 122.751 22.9742C122.849 23.058 122.891 23.1628 122.877 23.2885C122.849 24.2102 122.577 25.0411 122.06 25.7813C121.557 26.5215 120.845 27.108 119.923 27.5409C119.002 27.9599 117.919 28.1694 116.677 28.1694Z" fill="white"/>
<path d="M131.016 28.1694C129.103 28.1694 127.616 27.6876 126.554 26.724C125.493 25.7603 124.935 24.3289 124.879 22.4296C124.865 22.0246 124.858 21.431 124.858 20.649C124.858 19.8529 124.865 19.2524 124.879 18.8474C124.935 16.99 125.507 15.5655 126.596 14.574C127.686 13.5824 129.159 13.0867 131.016 13.0867C132.859 13.0867 134.326 13.5824 135.415 14.574C136.518 15.5655 137.098 16.99 137.154 18.8474C137.181 19.6574 137.195 20.2579 137.195 20.649C137.195 21.026 137.181 21.6196 137.154 22.4296C137.098 24.3289 136.532 25.7603 135.457 26.724C134.396 27.6876 132.915 28.1694 131.016 28.1694ZM131.016 25.7394C131.952 25.7394 132.692 25.4601 133.236 24.9015C133.781 24.3428 134.074 23.484 134.116 22.3248C134.144 21.4869 134.158 20.9213 134.158 20.628C134.158 20.3068 134.144 19.7412 134.116 18.9312C134.074 17.7861 133.774 16.9342 133.216 16.3755C132.657 15.803 131.924 15.5167 131.016 15.5167C130.094 15.5167 129.354 15.803 128.796 16.3755C128.237 16.9342 127.944 17.7861 127.916 18.9312C127.902 19.3362 127.895 19.9018 127.895 20.628C127.895 21.3403 127.902 21.9059 127.916 22.3248C127.944 23.47 128.23 24.3289 128.775 24.9015C129.333 25.4601 130.08 25.7394 131.016 25.7394Z" fill="white"/>
<path d="M140.428 27.9599C140.288 27.9599 140.169 27.911 140.072 27.8133C139.974 27.7155 139.925 27.5968 139.925 27.4571V13.8199C139.925 13.6662 139.967 13.5405 140.051 13.4428C140.148 13.345 140.274 13.2962 140.428 13.2962H145.853C147.571 13.2962 148.911 13.6942 149.875 14.4902C150.852 15.2862 151.341 16.4174 151.341 17.8838C151.341 18.9033 151.097 19.7622 150.608 20.4604C150.119 21.1448 149.435 21.6405 148.555 21.9478L151.592 27.2896C151.634 27.3734 151.655 27.4502 151.655 27.52C151.655 27.6457 151.606 27.7504 151.509 27.8342C151.425 27.918 151.327 27.9599 151.215 27.9599H149.288C149.065 27.9599 148.89 27.911 148.765 27.8133C148.639 27.7015 148.527 27.5619 148.429 27.3943L145.748 22.4296H142.879V27.4571C142.879 27.5968 142.83 27.7155 142.732 27.8133C142.634 27.911 142.508 27.9599 142.355 27.9599H140.428ZM145.79 20.0415C146.628 20.0415 147.256 19.8599 147.675 19.4968C148.094 19.1198 148.304 18.5751 148.304 17.8629C148.304 17.1506 148.094 16.606 147.675 16.2289C147.256 15.8379 146.628 15.6424 145.79 15.6424H142.879V20.0415H145.79Z" fill="white"/>
<path d="M154.542 27.9599C154.403 27.9599 154.284 27.911 154.186 27.8133C154.088 27.7155 154.04 27.5968 154.04 27.4571V13.8199C154.04 13.6662 154.081 13.5405 154.165 13.4428C154.263 13.345 154.389 13.2962 154.542 13.2962H159.653C163.773 13.2962 165.874 15.1955 165.958 18.9941C165.986 19.8041 166 20.3487 166 20.628C166 20.8934 165.986 21.431 165.958 22.241C165.902 24.1962 165.372 25.6416 164.366 26.5773C163.375 27.499 161.839 27.9599 159.758 27.9599H154.542ZM159.653 25.5299C160.812 25.5299 161.65 25.2716 162.167 24.7548C162.684 24.2381 162.956 23.3792 162.984 22.1782C163.012 21.3403 163.026 20.8166 163.026 20.6071C163.026 20.3836 163.012 19.8669 162.984 19.0569C162.956 17.9117 162.67 17.0738 162.125 16.5431C161.58 15.9985 160.722 15.7261 159.549 15.7261H156.993V25.5299H159.653Z" fill="white"/>
<path d="M67.8096 48.8269C67.6699 48.8269 67.5513 48.778 67.4535 48.6802C67.3557 48.5825 67.3069 48.4638 67.3069 48.3241V34.6868C67.3069 34.5332 67.3488 34.4075 67.4326 34.3098C67.5303 34.212 67.656 34.1631 67.8096 34.1631H73.2348C74.9524 34.1631 76.293 34.5611 77.2566 35.3572C78.2341 36.1532 78.7229 37.2844 78.7229 38.7508C78.7229 39.7703 78.4785 40.6291 77.9897 41.3274C77.501 42.0117 76.8167 42.5075 75.9369 42.8147L78.9742 48.1565C79.0161 48.2403 79.0371 48.3171 79.0371 48.387C79.0371 48.5127 78.9882 48.6174 78.8904 48.7012C78.8066 48.785 78.7089 48.8269 78.5972 48.8269H76.6701C76.4466 48.8269 76.2721 48.778 76.1464 48.6802C76.0207 48.5685 75.909 48.4289 75.8113 48.2613L73.1301 43.2966H70.2604V48.3241C70.2604 48.4638 70.2115 48.5825 70.1137 48.6802C70.016 48.778 69.8903 48.8269 69.7367 48.8269H67.8096ZM73.172 40.9085C74.0098 40.9085 74.6382 40.7269 75.0572 40.3638C75.4761 39.9867 75.6856 39.4421 75.6856 38.7298C75.6856 38.0176 75.4761 37.4729 75.0572 37.0959C74.6382 36.7048 74.0098 36.5093 73.172 36.5093H70.2604V40.9085H73.172Z" fill="white"/>
<path d="M87.2865 49.0364C85.3873 49.0364 83.9141 48.5546 82.8667 47.5909C81.8194 46.6273 81.2957 45.1679 81.2957 43.2128V34.6868C81.2957 34.5332 81.3376 34.4075 81.4214 34.3098C81.5191 34.212 81.6448 34.1631 81.7984 34.1631H83.7255C83.8791 34.1631 84.0048 34.212 84.1026 34.3098C84.2003 34.4075 84.2492 34.5332 84.2492 34.6868V43.2128C84.2492 44.316 84.5075 45.147 85.0242 45.7056C85.5549 46.2642 86.302 46.5435 87.2655 46.5435C88.2291 46.5435 88.9692 46.2642 89.4859 45.7056C90.0165 45.147 90.2819 44.316 90.2819 43.2128V34.6868C90.2819 34.5332 90.3307 34.4075 90.4285 34.3098C90.5262 34.212 90.6519 34.1631 90.8055 34.1631H92.7326C92.8862 34.1631 93.0049 34.212 93.0887 34.3098C93.1865 34.4075 93.2354 34.5332 93.2354 34.6868V43.2128C93.2354 45.1679 92.7117 46.6273 91.6644 47.5909C90.631 48.5546 89.1717 49.0364 87.2865 49.0364Z" fill="white"/>
<path d="M101.486 49.0364C100.229 49.0364 99.1535 48.8478 98.2598 48.4708C97.3661 48.0937 96.6888 47.5979 96.228 46.9834C95.7671 46.369 95.5228 45.6986 95.4948 44.9724C95.4948 44.8607 95.5367 44.7629 95.6205 44.6791C95.7043 44.5814 95.809 44.5325 95.9347 44.5325H97.8409C97.9945 44.5325 98.1201 44.5674 98.2179 44.6372C98.3157 44.7071 98.4064 44.8048 98.4902 44.9305C98.6299 45.4053 98.9441 45.8034 99.4328 46.1246C99.9355 46.4458 100.62 46.6064 101.486 46.6064C102.463 46.6064 103.196 46.4458 103.685 46.1246C104.188 45.7894 104.439 45.3355 104.439 44.7629C104.439 44.3859 104.313 44.0716 104.062 43.8203C103.811 43.5689 103.427 43.3524 102.91 43.1709C102.407 42.9753 101.653 42.7449 100.648 42.4796C98.9999 42.0885 97.792 41.5718 97.0239 40.9294C96.2559 40.287 95.8719 39.3653 95.8719 38.1642C95.8719 37.3542 96.0953 36.635 96.5422 36.0066C96.989 35.3642 97.6244 34.8614 98.4483 34.4983C99.2862 34.1352 100.257 33.9536 101.36 33.9536C102.519 33.9536 103.517 34.1561 104.355 34.5611C105.207 34.9661 105.85 35.4759 106.282 36.0904C106.729 36.6909 106.967 37.2914 106.995 37.8919C106.995 38.0036 106.953 38.1084 106.869 38.2061C106.785 38.2899 106.68 38.3318 106.555 38.3318H104.565C104.258 38.3318 104.048 38.2061 103.936 37.9548C103.867 37.5079 103.594 37.1378 103.119 36.8445C102.645 36.5373 102.058 36.3836 101.36 36.3836C100.592 36.3836 99.9844 36.5303 99.5375 36.8236C99.1046 37.1168 98.8882 37.5428 98.8882 38.1014C98.8882 38.4785 98.9999 38.7927 99.2233 39.0441C99.4468 39.2954 99.7959 39.5189 100.271 39.7144C100.745 39.896 101.437 40.1054 102.344 40.3429C103.587 40.6222 104.572 40.9364 105.298 41.2855C106.038 41.6347 106.583 42.0746 106.932 42.6053C107.281 43.1359 107.455 43.8133 107.455 44.6372C107.455 45.545 107.204 46.334 106.701 47.0044C106.213 47.6608 105.514 48.1635 104.607 48.5127C103.713 48.8618 102.673 49.0364 101.486 49.0364Z" fill="white"/>
<path d="M108.709 48.8269C108.583 48.8269 108.478 48.785 108.395 48.7012C108.311 48.6174 108.269 48.5127 108.269 48.387L108.311 48.1984L113.338 34.6868C113.478 34.3377 113.729 34.1631 114.092 34.1631H116.396C116.759 34.1631 117.011 34.3377 117.15 34.6868L122.178 48.1984L122.219 48.387C122.219 48.5127 122.171 48.6174 122.073 48.7012C121.989 48.785 121.891 48.8269 121.78 48.8269H119.915C119.622 48.8269 119.42 48.6942 119.308 48.4289L118.344 45.8941H112.144L111.181 48.4289C111.069 48.6942 110.866 48.8269 110.573 48.8269H108.709ZM112.877 43.4641H117.611L115.244 37.0121L112.877 43.4641Z" fill="white"/>
<path d="M124.656 48.8269C124.517 48.8269 124.398 48.778 124.3 48.6802C124.202 48.5825 124.154 48.4638 124.154 48.3241V34.6868C124.154 34.5332 124.195 34.4075 124.279 34.3098C124.377 34.212 124.503 34.1631 124.656 34.1631H126.353C126.618 34.1631 126.828 34.2958 126.981 34.5611L131.024 42.0606L135.067 34.5611C135.22 34.2958 135.43 34.1631 135.695 34.1631H137.371C137.525 34.1631 137.65 34.212 137.748 34.3098C137.846 34.4075 137.895 34.5332 137.895 34.6868V48.3241C137.895 48.4777 137.846 48.6034 137.748 48.7012C137.65 48.785 137.525 48.8269 137.371 48.8269H135.57C135.43 48.8269 135.311 48.778 135.213 48.6802C135.116 48.5825 135.067 48.4638 135.067 48.3241V39.3164L132.155 44.8467C132.002 45.154 131.771 45.3076 131.464 45.3076H130.584C130.291 45.3076 130.054 45.154 129.872 44.8467L126.96 39.3164V48.3241C126.96 48.4638 126.912 48.5825 126.814 48.6802C126.73 48.778 126.611 48.8269 126.458 48.8269H124.656Z" fill="white"/>
<path fill-rule="evenodd" clip-rule="evenodd" d="M39.5112 24.9356H48.5005C48.3918 27.6521 47.7987 30.2356 46.8088 32.5997H49.2955C50.2886 29.9369 50.8325 27.0466 50.8325 24.0262C50.8325 10.7569 40.3339 0 27.3831 0C14.4323 0 3.93359 10.7569 3.93359 24.0262C3.93359 27.0466 4.47757 29.9369 5.47063 32.5997H7.95735C6.96745 30.2356 6.37432 27.6521 6.26567 24.9356H15.2552C15.3045 27.627 15.5779 30.2052 16.0395 32.5997H18.3986C17.9149 30.2404 17.6219 27.6596 17.5695 24.9356H26.2261V32.6038H28.5401V24.9356H37.1968C37.1444 27.6596 36.8514 30.2404 36.3677 32.5997H38.7268C39.1885 30.2052 39.4618 27.627 39.5112 24.9356ZM39.4981 22.6215L48.4752 22.6215C48.2388 18.8082 47.0466 15.2706 45.1458 12.2521C44.481 12.4523 43.4908 12.7051 42.1026 12.955C41.0639 13.142 39.8013 13.3276 38.284 13.4884C38.9749 16.2722 39.4012 19.3593 39.4981 22.6215ZM35.9501 13.698C36.643 16.3719 37.0824 19.3908 37.1831 22.6215H28.5401L28.5401 13.9772C31.4171 13.9594 33.8704 13.8536 35.9501 13.698ZM17.5832 22.6216H26.2261V13.9724C23.3691 13.9426 20.9156 13.8257 18.8258 13.6613C18.1273 16.3442 17.6844 19.376 17.5832 22.6216ZM35.2733 11.4266C33.3632 11.5578 31.1319 11.6467 28.5401 11.663V2.53729C30.2865 3.06233 32.2144 4.78912 33.8993 8.12131C34.405 9.12146 34.8663 10.2284 35.2733 11.4266ZM26.2261 11.6582V2.53733C24.4797 3.06242 22.5518 4.78921 20.867 8.12131C20.3662 9.11185 19.9089 10.2071 19.5048 11.392C21.4238 11.5318 23.6538 11.6309 26.2261 11.6582ZM37.644 11.228C39.289 11.0635 40.625 10.8697 41.6926 10.6775C42.5254 10.5276 43.194 10.3788 43.7177 10.246C41.0708 6.94123 37.4936 4.45777 33.4077 3.21049C35.1287 5.1607 36.5851 7.92078 37.644 11.228ZM21.3587 3.21042C17.284 4.45422 13.7152 6.92742 11.0704 10.2186C11.6547 10.3584 12.4041 10.5166 13.3363 10.6757C14.3705 10.8523 15.6292 11.0299 17.1361 11.1851C18.1938 7.89684 19.6451 5.15218 21.3587 3.21042ZM16.4934 13.4441C15.1143 13.2943 13.9381 13.126 12.9469 12.9568C11.436 12.6989 10.3544 12.4387 9.63945 12.2384L9.63057 12.2359C7.72377 15.258 6.52773 18.8013 6.29091 22.6216H15.2682C15.3656 19.342 15.796 16.2394 16.4934 13.4441Z" fill="white"/>
<path fill-rule="evenodd" clip-rule="evenodd" d="M21.2839 42.2573H0V49.2471H16.9071L22.7288 53.9924C24.1933 55.1861 26.2492 55.333 27.8685 54.3595L34.0645 50.6345C34.9357 50.1108 35.1322 48.9322 34.478 48.1541L31.4359 44.5357L27.8866 47.2754C26.2351 48.5502 23.897 48.4135 22.4052 46.955L19.4213 44.0377L21.2839 42.2573ZM54.7271 48.8961V42.2573H32.1116L35.9961 46.8776C36.4991 47.4758 36.7735 48.1817 36.8358 48.8961H54.7271ZM31.1415 42.2573H24.1543L22.2749 44.0538L23.7917 45.5367C24.5763 46.3038 25.8061 46.3757 26.6748 45.7052L31.1415 42.2573Z" fill="#1B68C2"/>
<path fill-rule="evenodd" clip-rule="evenodd" d="M0 34.5833H19.5171C21.6766 34.5833 23.7474 35.4425 25.2725 36.9715L26.0247 37.7256L21.2839 42.2572H0V34.5833ZM32.1115 42.2572H54.7271V34.5833H35.3675C33.2079 34.5833 31.1372 35.4425 29.612 36.9715L28.136 38.4512L22.2749 44.0538L23.7917 45.5367C24.5763 46.3038 25.8061 46.3757 26.6748 45.7051L31.7298 41.8032L32.1115 42.2572Z" fill="#E41C0F"/>
<path d="M11.3555 35.8719L11.9653 37.313L13.5242 37.4477L12.3422 38.473L12.6958 39.9973L11.3555 39.19L10.0152 39.9973L10.3687 38.473L9.1868 37.4477L10.7456 37.313L11.3555 35.8719Z" fill="white"/>
<path d="M5.47268 35.8719L6.08253 37.313L7.64137 37.4477L6.45943 38.473L6.813 39.9973L5.47268 39.19L4.13235 39.9973L4.48593 38.473L3.30399 37.4477L4.86283 37.313L5.47268 35.8719Z" fill="white"/>
<path d="M17.2383 35.8719L17.8482 37.313L19.407 37.4477L18.2251 38.473L18.5786 39.9973L17.2383 39.19L15.898 39.9973L16.2515 38.473L15.0696 37.4477L16.6285 37.313L17.2383 35.8719Z" fill="white"/>
</svg>
