<svg width="216" height="72" viewBox="0 0 216 72" fill="none" xmlns="http://www.w3.org/2000/svg">
<path d="M95.1093 36.4487C92.6156 36.4487 90.6821 35.8162 89.3088 34.5513C87.9535 33.2683 87.2307 31.4523 87.1404 29.1032C87.1223 28.6153 87.1133 27.8202 87.1133 26.7179C87.1133 25.5976 87.1223 24.7844 87.1404 24.2785C87.2307 21.9655 87.9626 20.1675 89.3359 18.8846C90.7092 17.5835 92.6337 16.933 95.1093 16.933C96.7175 16.933 98.118 17.2131 99.3106 17.7732C100.503 18.3153 101.425 19.0653 102.075 20.023C102.744 20.9807 103.096 22.0559 103.132 23.2485V23.3027C103.132 23.4472 103.069 23.5737 102.943 23.6822C102.834 23.7725 102.708 23.8177 102.563 23.8177H99.934C99.7172 23.8177 99.5545 23.7725 99.4461 23.6822C99.3377 23.5737 99.2473 23.393 99.1751 23.1401C98.904 22.0197 98.4342 21.2337 97.7656 20.7819C97.097 20.3121 96.2116 20.0772 95.1093 20.0772C92.5253 20.0772 91.179 21.5228 91.0706 24.414C91.0526 24.9019 91.0435 25.6518 91.0435 26.6637C91.0435 27.6756 91.0526 28.4436 91.0706 28.9677C91.179 31.8589 92.5253 33.3045 95.1093 33.3045C96.1935 33.3045 97.0699 33.0786 97.7385 32.6268C98.4252 32.157 98.904 31.3619 99.1751 30.2416C99.2473 29.9886 99.3377 29.817 99.4461 29.7266C99.5545 29.6182 99.7172 29.564 99.934 29.564H102.563C102.726 29.564 102.861 29.6182 102.97 29.7266C103.096 29.835 103.15 29.9705 103.132 30.1332C103.096 31.3258 102.744 32.401 102.075 33.3587C101.425 34.3164 100.503 35.0753 99.3106 35.6355C98.118 36.1776 96.7175 36.4487 95.1093 36.4487Z" fill="#333333"/>
<path d="M113.665 36.4487C111.189 36.4487 109.265 35.8253 107.891 34.5784C106.518 33.3316 105.795 31.4794 105.723 29.0219C105.705 28.4978 105.696 27.7299 105.696 26.7179C105.696 25.6879 105.705 24.9109 105.723 24.3869C105.795 21.9836 106.536 20.1404 107.945 18.8574C109.355 17.5745 111.261 16.933 113.665 16.933C116.05 16.933 117.947 17.5745 119.357 18.8574C120.784 20.1404 121.534 21.9836 121.606 24.3869C121.643 25.435 121.661 26.212 121.661 26.7179C121.661 27.2058 121.643 27.9738 121.606 29.0219C121.534 31.4794 120.802 33.3316 119.411 34.5784C118.038 35.8253 116.122 36.4487 113.665 36.4487ZM113.665 33.3045C114.875 33.3045 115.833 32.9431 116.538 32.2203C117.243 31.4975 117.622 30.3862 117.676 28.8863C117.712 27.8021 117.73 27.0703 117.73 26.6908C117.73 26.2752 117.712 25.5434 117.676 24.4953C117.622 23.0136 117.233 21.9113 116.511 21.1885C115.788 20.4476 114.839 20.0772 113.665 20.0772C112.472 20.0772 111.514 20.4476 110.792 21.1885C110.069 21.9113 109.689 23.0136 109.653 24.4953C109.635 25.0193 109.626 25.7512 109.626 26.6908C109.626 27.6124 109.635 28.3442 109.653 28.8863C109.689 30.3681 110.06 31.4794 110.764 32.2203C111.487 32.9431 112.454 33.3045 113.665 33.3045Z" fill="#333333"/>
<path d="M125.843 36.1776C125.663 36.1776 125.509 36.1144 125.383 35.9879C125.256 35.8614 125.193 35.7078 125.193 35.5271V17.8817C125.193 17.6829 125.247 17.5203 125.355 17.3938C125.482 17.2673 125.645 17.204 125.843 17.204H127.958C128.301 17.204 128.563 17.3576 128.744 17.6648L136.496 29.6995V17.8817C136.496 17.6829 136.55 17.5203 136.658 17.3938C136.785 17.2673 136.947 17.204 137.146 17.204H139.477C139.676 17.204 139.839 17.2673 139.965 17.3938C140.092 17.5203 140.155 17.6829 140.155 17.8817V35.5C140.155 35.6988 140.092 35.8614 139.965 35.9879C139.839 36.1144 139.685 36.1776 139.504 36.1776H137.363C137.002 36.1776 136.731 36.024 136.55 35.7168L128.825 23.9532V35.5271C128.825 35.7078 128.762 35.8614 128.635 35.9879C128.527 36.1144 128.373 36.1776 128.174 36.1776H125.843Z" fill="#333333"/>
<path d="M151.675 36.4487C149.182 36.4487 147.248 35.8162 145.875 34.5513C144.52 33.2683 143.797 31.4523 143.706 29.1032C143.688 28.6153 143.679 27.8202 143.679 26.7179C143.679 25.5976 143.688 24.7844 143.706 24.2785C143.797 21.9655 144.529 20.1675 145.902 18.8846C147.275 17.5835 149.2 16.933 151.675 16.933C153.284 16.933 154.684 17.2131 155.877 17.7732C157.069 18.3153 157.991 19.0653 158.641 20.023C159.31 20.9807 159.662 22.0559 159.698 23.2485V23.3027C159.698 23.4472 159.635 23.5737 159.509 23.6822C159.4 23.7725 159.274 23.8177 159.129 23.8177H156.5C156.283 23.8177 156.121 23.7725 156.012 23.6822C155.904 23.5737 155.813 23.393 155.741 23.1401C155.47 22.0197 155 21.2337 154.332 20.7819C153.663 20.3121 152.778 20.0772 151.675 20.0772C149.091 20.0772 147.745 21.5228 147.637 24.414C147.619 24.9019 147.61 25.6518 147.61 26.6637C147.61 27.6756 147.619 28.4436 147.637 28.9677C147.745 31.8589 149.091 33.3045 151.675 33.3045C152.76 33.3045 153.636 33.0786 154.305 32.6268C154.991 32.157 155.47 31.3619 155.741 30.2416C155.813 29.9886 155.904 29.817 156.012 29.7266C156.121 29.6182 156.283 29.564 156.5 29.564H159.129C159.292 29.564 159.427 29.6182 159.536 29.7266C159.662 29.835 159.717 29.9705 159.698 30.1332C159.662 31.3258 159.31 32.401 158.641 33.3587C157.991 34.3164 157.069 35.0753 155.877 35.6355C154.684 36.1776 153.284 36.4487 151.675 36.4487Z" fill="#333333"/>
<path d="M170.231 36.4487C167.755 36.4487 165.831 35.8253 164.457 34.5784C163.084 33.3316 162.361 31.4794 162.289 29.0219C162.271 28.4978 162.262 27.7299 162.262 26.7179C162.262 25.6879 162.271 24.9109 162.289 24.3869C162.361 21.9836 163.102 20.1404 164.512 18.8574C165.921 17.5745 167.827 16.933 170.231 16.933C172.616 16.933 174.513 17.5745 175.923 18.8574C177.35 20.1404 178.1 21.9836 178.173 24.3869C178.209 25.435 178.227 26.212 178.227 26.7179C178.227 27.2058 178.209 27.9738 178.173 29.0219C178.1 31.4794 177.368 33.3316 175.977 34.5784C174.604 35.8253 172.688 36.4487 170.231 36.4487ZM170.231 33.3045C171.441 33.3045 172.399 32.9431 173.104 32.2203C173.809 31.4975 174.188 30.3862 174.242 28.8863C174.278 27.8021 174.296 27.0703 174.296 26.6908C174.296 26.2752 174.278 25.5434 174.242 24.4953C174.188 23.0136 173.8 21.9113 173.077 21.1885C172.354 20.4476 171.405 20.0772 170.231 20.0772C169.038 20.0772 168.08 20.4476 167.358 21.1885C166.635 21.9113 166.255 23.0136 166.219 24.4953C166.201 25.0193 166.192 25.7512 166.192 26.6908C166.192 27.6124 166.201 28.3442 166.219 28.8863C166.255 30.3681 166.626 31.4794 167.33 32.2203C168.053 32.9431 169.02 33.3045 170.231 33.3045Z" fill="#333333"/>
<path d="M182.409 36.1776C182.229 36.1776 182.075 36.1144 181.949 35.9879C181.822 35.8614 181.759 35.7078 181.759 35.5271V17.8817C181.759 17.6829 181.813 17.5203 181.921 17.3938C182.048 17.2673 182.211 17.204 182.409 17.204H189.43C191.652 17.204 193.387 17.719 194.634 18.749C195.899 19.779 196.531 21.2427 196.531 23.1401C196.531 24.4592 196.215 25.5705 195.582 26.474C194.95 27.3594 194.065 28.0009 192.926 28.3985L196.856 35.3103C196.911 35.4187 196.938 35.5181 196.938 35.6084C196.938 35.771 196.874 35.9066 196.748 36.015C196.64 36.1234 196.513 36.1776 196.369 36.1776H193.875C193.586 36.1776 193.36 36.1144 193.197 35.9879C193.035 35.8433 192.89 35.6626 192.764 35.4458L189.294 29.0219H185.581V35.5271C185.581 35.7078 185.517 35.8614 185.391 35.9879C185.264 36.1144 185.102 36.1776 184.903 36.1776H182.409ZM189.348 25.9319C190.433 25.9319 191.246 25.697 191.788 25.2271C192.33 24.7393 192.601 24.0345 192.601 23.113C192.601 22.1914 192.33 21.4866 191.788 20.9988C191.246 20.4928 190.433 20.2398 189.348 20.2398H185.581V25.9319H189.348Z" fill="#333333"/>
<path d="M200.674 36.1776C200.493 36.1776 200.339 36.1144 200.213 35.9879C200.086 35.8614 200.023 35.7078 200.023 35.5271V17.8817C200.023 17.6829 200.077 17.5203 200.186 17.3938C200.312 17.2673 200.475 17.204 200.674 17.204H207.287C212.618 17.204 215.337 19.6616 215.446 24.5766C215.482 25.6247 215.5 26.3294 215.5 26.6908C215.5 27.0342 215.482 27.7299 215.446 28.7779C215.374 31.3077 214.687 33.178 213.386 34.3887C212.103 35.5813 210.115 36.1776 207.423 36.1776H200.674ZM207.287 33.0334C208.787 33.0334 209.871 32.6991 210.54 32.0305C211.208 31.3619 211.561 30.2506 211.597 28.6966C211.633 27.6124 211.651 26.9348 211.651 26.6637C211.651 26.3746 211.633 25.706 211.597 24.6579C211.561 23.1762 211.19 22.092 210.486 21.4053C209.781 20.7006 208.67 20.3482 207.152 20.3482H203.845V33.0334H207.287Z" fill="#333333"/>
<path d="M88.4414 63.1776C88.2607 63.1776 88.1071 63.1144 87.9806 62.9879C87.8542 62.8614 87.7909 62.7078 87.7909 62.5271V44.8817C87.7909 44.6829 87.8451 44.5203 87.9535 44.3938C88.08 44.2673 88.2427 44.204 88.4414 44.204H95.4617C97.6843 44.204 99.419 44.719 100.666 45.749C101.931 46.779 102.563 48.2427 102.563 50.1401C102.563 51.4592 102.247 52.5705 101.615 53.474C100.982 54.3594 100.097 55.0009 98.9582 55.3984L102.888 62.3103C102.943 62.4187 102.97 62.5181 102.97 62.6084C102.97 62.771 102.907 62.9066 102.78 63.015C102.672 63.1234 102.545 63.1776 102.401 63.1776H99.9069C99.6178 63.1776 99.3919 63.1144 99.2293 62.9879C99.0666 62.8433 98.9221 62.6626 98.7956 62.4458L95.3261 56.0219H91.6127V62.5271C91.6127 62.7078 91.5495 62.8614 91.423 62.9879C91.2965 63.1144 91.1339 63.1776 90.9351 63.1776H88.4414ZM95.3803 52.9319C96.4645 52.9319 97.2777 52.697 97.8198 52.2271C98.3619 51.7393 98.633 51.0345 98.633 50.113C98.633 49.1914 98.3619 48.4866 97.8198 47.9988C97.2777 47.4928 96.4645 47.2398 95.3803 47.2398H91.6127V52.9319H95.3803Z" fill="#333333"/>
<path d="M113.645 63.4487C111.187 63.4487 109.281 62.8253 107.925 61.5784C106.57 60.3316 105.892 58.4433 105.892 55.9134V44.8817C105.892 44.6829 105.947 44.5203 106.055 44.3938C106.182 44.2673 106.344 44.204 106.543 44.204H109.037C109.235 44.204 109.398 44.2673 109.525 44.3938C109.651 44.5203 109.714 44.6829 109.714 44.8817V55.9134C109.714 57.341 110.049 58.4162 110.717 59.139C111.404 59.8618 112.371 60.2232 113.617 60.2232C114.864 60.2232 115.822 59.8618 116.491 59.139C117.177 58.4162 117.521 57.341 117.521 55.9134V44.8817C117.521 44.6829 117.584 44.5203 117.71 44.3938C117.837 44.2673 117.999 44.204 118.198 44.204H120.692C120.891 44.204 121.044 44.2673 121.153 44.3938C121.279 44.5203 121.342 44.6829 121.342 44.8817V55.9134C121.342 58.4433 120.665 60.3316 119.31 61.5784C117.972 62.8253 116.084 63.4487 113.645 63.4487Z" fill="#333333"/>
<path d="M132.018 63.4487C130.392 63.4487 129.001 63.2047 127.844 62.7168C126.688 62.2289 125.811 61.5875 125.215 60.7924C124.619 59.9973 124.302 59.1299 124.266 58.1903C124.266 58.0457 124.32 57.9192 124.429 57.8108C124.537 57.6843 124.673 57.6211 124.835 57.6211H127.302C127.501 57.6211 127.663 57.6662 127.79 57.7566C127.916 57.8469 128.034 57.9734 128.142 58.1361C128.323 58.7505 128.729 59.2654 129.362 59.6811C130.012 60.0967 130.898 60.3045 132.018 60.3045C133.283 60.3045 134.232 60.0967 134.864 59.6811C135.515 59.2474 135.84 58.6601 135.84 57.9192C135.84 57.4313 135.677 57.0248 135.352 56.6995C135.027 56.3742 134.53 56.0942 133.861 55.8592C133.211 55.6063 132.235 55.3081 130.934 54.9648C128.802 54.4588 127.239 53.7902 126.245 52.959C125.251 52.1278 124.754 50.9351 124.754 49.3811C124.754 48.333 125.043 47.4024 125.621 46.5893C126.2 45.7581 127.022 45.1075 128.088 44.6377C129.172 44.1679 130.428 43.933 131.856 43.933C133.355 43.933 134.647 44.195 135.732 44.719C136.834 45.2431 137.665 45.9026 138.225 46.6977C138.804 47.4747 139.111 48.2517 139.147 49.0287C139.147 49.1733 139.093 49.3088 138.984 49.4353C138.876 49.5437 138.74 49.598 138.578 49.598H136.003C135.605 49.598 135.334 49.4353 135.19 49.1101C135.099 48.5318 134.747 48.053 134.132 47.6735C133.518 47.2759 132.759 47.0772 131.856 47.0772C130.862 47.0772 130.076 47.2669 129.497 47.6464C128.937 48.0259 128.657 48.577 128.657 49.2998C128.657 49.7877 128.802 50.1943 129.091 50.5195C129.38 50.8448 129.832 51.1339 130.446 51.3869C131.06 51.6218 131.955 51.8929 133.13 52.2C134.738 52.5614 136.012 52.968 136.951 53.4198C137.909 53.8715 138.614 54.4407 139.066 55.1274C139.517 55.8141 139.743 56.6905 139.743 57.7566C139.743 58.9312 139.418 59.9521 138.767 60.8195C138.135 61.6688 137.231 62.3193 136.057 62.771C134.9 63.2228 133.554 63.4487 132.018 63.4487Z" fill="#333333"/>
<path d="M141.365 63.1776C141.202 63.1776 141.067 63.1234 140.958 63.015C140.85 62.9066 140.796 62.771 140.796 62.6084L140.85 62.3645L147.355 44.8817C147.536 44.4299 147.861 44.204 148.331 44.204H151.313C151.782 44.204 152.108 44.4299 152.288 44.8817L158.794 62.3645L158.848 62.6084C158.848 62.771 158.785 62.9066 158.658 63.015C158.55 63.1234 158.423 63.1776 158.279 63.1776H155.866C155.487 63.1776 155.225 63.006 155.08 62.6626L153.833 59.3829H145.81L144.563 62.6626C144.419 63.006 144.157 63.1776 143.777 63.1776H141.365ZM146.759 56.2387H152.885L149.822 47.8903L146.759 56.2387Z" fill="#333333"/>
<path d="M162.001 63.1776C161.82 63.1776 161.667 63.1144 161.54 62.9879C161.414 62.8614 161.351 62.7078 161.351 62.5271V44.8817C161.351 44.6829 161.405 44.5203 161.513 44.3938C161.64 44.2673 161.802 44.204 162.001 44.204H164.197C164.54 44.204 164.811 44.3757 165.01 44.719L170.241 54.4227L175.472 44.719C175.671 44.3757 175.942 44.204 176.286 44.204H178.454C178.653 44.204 178.815 44.2673 178.942 44.3938C179.068 44.5203 179.132 44.6829 179.132 44.8817V62.5271C179.132 62.7259 179.068 62.8885 178.942 63.015C178.815 63.1234 178.653 63.1776 178.454 63.1776H176.123C175.942 63.1776 175.789 63.1144 175.662 62.9879C175.536 62.8614 175.472 62.7078 175.472 62.5271V50.8719L171.705 58.0276C171.506 58.4252 171.208 58.624 170.81 58.624H169.672C169.292 58.624 168.985 58.4252 168.75 58.0276L164.983 50.8719V62.5271C164.983 62.7078 164.919 62.8614 164.793 62.9879C164.685 63.1144 164.531 63.1776 164.332 63.1776H162.001Z" fill="#333333"/>
<path fill-rule="evenodd" clip-rule="evenodd" d="M51.8235 32.2645H63.4557C63.3151 35.7794 62.5476 39.1222 61.2667 42.1812H64.4845C65.7695 38.7357 66.4734 34.9959 66.4734 31.0877C66.4734 13.9184 52.8881 0 36.1298 0C19.3714 0 5.78613 13.9184 5.78613 31.0877C5.78613 34.9959 6.49004 38.7357 7.77506 42.1812H10.9929C9.71194 39.1222 8.94443 35.7794 8.80384 32.2645H20.4363C20.5001 35.7468 20.8538 39.0829 21.4512 42.1812H24.5039C23.8779 39.1283 23.4988 35.789 23.431 32.2645H34.6327V42.1864H37.6269V32.2645H48.8288C48.761 35.789 48.3819 39.1283 47.7559 42.1812H50.8086C51.406 39.0829 51.7597 35.7468 51.8235 32.2645ZM51.8066 29.2703L63.423 29.2703C63.1171 24.3361 61.5744 19.7588 59.1147 15.8532C58.2544 16.1122 56.9732 16.4392 55.1768 16.7626C53.8328 17.0046 52.199 17.2447 50.2356 17.4528C51.1296 21.0547 51.6813 25.0492 51.8066 29.2703ZM47.2155 17.724C48.1122 21.1837 48.6807 25.09 48.811 29.2703H37.6269L37.6269 18.0852C41.3498 18.0622 44.5244 17.9253 47.2155 17.724ZM23.4487 29.2703H34.6327L34.6327 18.079C30.9357 18.0405 27.7609 17.8893 25.0566 17.6765C24.1528 21.1479 23.5797 25.0708 23.4487 29.2703ZM46.3397 14.785C43.868 14.9548 40.9807 15.0698 37.6269 15.0909V3.28302C39.8869 3.96238 42.3816 6.1967 44.5618 10.5083C45.2162 11.8024 45.813 13.2346 46.3397 14.785ZM34.6327 15.0846V3.28307C32.3728 3.9625 29.8782 6.19681 27.698 10.5083C27.0499 11.7899 26.4582 13.2071 25.9353 14.7403C28.4184 14.9212 31.3041 15.0493 34.6327 15.0846ZM49.4075 14.528C51.536 14.3152 53.2649 14.0644 54.6463 13.8158C55.724 13.6218 56.5892 13.4292 57.2668 13.2574C53.8417 8.98133 49.2128 5.76796 43.9256 4.15409C46.1527 6.67748 48.0373 10.2488 49.4075 14.528ZM28.3342 4.15399C23.0616 5.76336 18.4435 8.96346 15.0212 13.2219C15.7772 13.4029 16.747 13.6075 17.9532 13.8134C19.2915 14.0419 20.9203 14.2718 22.8702 14.4725C24.2389 10.2178 26.1168 6.66646 28.3342 4.15399ZM22.0385 17.3954C20.254 17.2016 18.7319 16.9839 17.4494 16.765C15.4943 16.4312 14.0947 16.0946 13.1695 15.8354L13.158 15.8322C10.6906 19.7425 9.14295 24.3273 8.83651 29.2703L20.4532 29.2703C20.5792 25.0268 21.136 21.0123 22.0385 17.3954Z" fill="#333333"/>
<path fill-rule="evenodd" clip-rule="evenodd" d="M28.2371 54.6771H0.695801V63.7213H22.5736L30.1068 69.8612C32.0019 71.4058 34.6622 71.5958 36.7576 70.3362L44.7753 65.5165C45.9026 64.8388 46.1569 63.3138 45.3104 62.307L41.3738 57.6252L36.7811 61.17C34.6441 62.8195 31.6184 62.6427 29.6881 60.7556L25.8269 56.9808L28.2371 54.6771ZM71.5127 63.2671V54.6771H42.2482L47.2748 60.6554C47.9256 61.4294 48.2807 62.3428 48.3613 63.2671H71.5127ZM40.9929 54.6771H31.9515L29.5195 57.0016L31.4822 58.9204C32.4975 59.913 34.0889 60.0059 35.2129 59.1384L40.9929 54.6771Z" fill="#1B68C2"/>
<path fill-rule="evenodd" clip-rule="evenodd" d="M0.695801 44.7477H25.9509C28.7453 44.7477 31.4249 45.8595 33.3985 47.8379L34.3718 48.8136L28.2372 54.6771H0.695801V44.7477ZM42.2481 54.6771H71.5127V44.7477H46.4613C43.6669 44.7477 40.9873 45.8595 39.0137 47.8379L37.1038 49.7525L29.5195 57.0017L31.4822 58.9204C32.4975 59.913 34.0889 60.006 35.2129 59.1384L41.7541 54.0896L42.2481 54.6771Z" fill="#E41C0F"/>
<path d="M15.3902 46.4152L16.1793 48.2797L18.1964 48.454L16.667 49.7807L17.1245 51.753L15.3902 50.7084L13.6558 51.753L14.1133 49.7807L12.5839 48.454L14.601 48.2797L15.3902 46.4152Z" fill="white"/>
<path d="M7.77737 46.4152L8.56651 48.2797L10.5837 48.454L9.05423 49.7807L9.51175 51.753L7.77737 50.7084L6.04298 51.753L6.5005 49.7807L4.97108 48.454L6.98822 48.2797L7.77737 46.4152Z" fill="white"/>
<path d="M23.0025 46.4152L23.7916 48.2797L25.8088 48.454L24.2793 49.7807L24.7368 51.753L23.0025 50.7084L21.2681 51.753L21.7256 49.7807L20.1962 48.454L22.2133 48.2797L23.0025 46.4152Z" fill="white"/>
</svg>
