<svg width="64" height="15" viewBox="0 0 64 15" fill="none" xmlns="http://www.w3.org/2000/svg">
<path d="M13.6461 5C13.6461 6.375 13.1344 7.5625 12.0427 8.53125C10.9851 9.53125 9.68872 10 8.18765 10H2.72922V15H0V7.5H2.72922H8.18765C8.93818 7.5 9.55226 7.25 10.0981 6.78125C10.6439 6.28125 10.9169 5.71875 10.9169 5.03125C10.9169 4.34375 10.6439 3.75 10.0981 3.28125C9.55226 2.75 8.93818 2.5 8.18765 2.5H2.72922L0 0H8.18765C9.68872 0 10.9851 0.5 12.0427 1.46875C13.1002 2.46875 13.6461 3.625 13.6461 5Z" fill="white"/>
<path d="M17.9779 12.5L16.5792 15H13.543L21.7306 0L27.1891 10H24.1187L21.7306 5.59375L19.3084 10L17.9779 12.5ZM29.9183 15H26.882L25.5174 12.5H28.5537L29.9183 15Z" fill="white"/>
<path d="M43.258 10.8125L45.9872 11.625C45.6119 12.125 45.2025 12.5938 44.6908 13C44.2132 13.4062 43.6674 13.7812 43.0874 14.0625C42.5074 14.375 41.8934 14.5938 41.2111 14.75C40.5629 14.9062 39.8806 15 39.1641 15C36.8784 15 35.0021 14.25 33.3987 12.7812C31.7953 11.3125 30.9424 9.59375 30.9424 7.5C30.9424 5.4375 31.727 3.6875 33.3646 2.21875C34.9339 0.75 36.8784 0 39.13 0C40.2558 0 41.3134 0.1875 42.3369 0.59375C43.3262 1 44.2132 1.53125 44.9637 2.21875L42.985 3.96875C41.9275 3 40.6652 2.5 39.13 2.5C37.629 2.5 36.3326 2.96875 35.275 3.96875C34.2174 4.9375 33.7057 6.125 33.7057 7.5C33.7057 8.875 34.2174 10.0625 35.275 11.0312C36.3326 12 37.6631 12.4688 39.13 12.4688C39.9488 12.4688 40.6993 12.3125 41.4158 12.0312C42.0981 11.75 42.7121 11.3438 43.258 10.8125ZM39.13 6.25H45.9531L43.2239 8.75H39.0959L39.13 6.25Z" fill="white"/>
<path d="M63.9996 0L60.5881 2.5H50.3535V0H63.9996ZM60.5881 8.75H50.3535V6.25H60.5881V8.75ZM63.9996 14.7812V15H50.3535V12.5H60.5881L63.9996 14.7812Z" fill="white"/>
</svg>
